<mxfile host="app.diagrams.net" modified="2023-09-26T11:48:39.421Z" agent="Mozilla/5.0 (Windows NT 10.0; Win64; x64) AppleWebKit/537.36 (KHTML, like Gecko) Chrome/116.0.0.0 Safari/537.36" etag="M7wc4gJ3SUXoWwhk0DJ7" version="21.8.2" type="github">
  <diagram name="Page-1" id="wPWbYmunB24sLbYXiyD-">
    <mxGraphModel dx="880" dy="516" grid="1" gridSize="10" guides="1" tooltips="1" connect="1" arrows="1" fold="1" page="1" pageScale="1" pageWidth="850" pageHeight="1100" math="0" shadow="0">
      <root>
        <mxCell id="0" />
        <mxCell id="1" parent="0" />
        <mxCell id="Wp0R-z6l0u6ja4dDPxDP-1" value="Admin Login" style="ellipse;whiteSpace=wrap;html=1;" vertex="1" parent="1">
          <mxGeometry x="350" y="10" width="230" height="50" as="geometry" />
        </mxCell>
        <mxCell id="Wp0R-z6l0u6ja4dDPxDP-3" value="Add Bus" style="ellipse;whiteSpace=wrap;html=1;" vertex="1" parent="1">
          <mxGeometry x="350" y="70" width="230" height="50" as="geometry" />
        </mxCell>
        <mxCell id="Wp0R-z6l0u6ja4dDPxDP-4" value="Add New Route" style="ellipse;whiteSpace=wrap;html=1;" vertex="1" parent="1">
          <mxGeometry x="350" y="130" width="230" height="50" as="geometry" />
        </mxCell>
        <mxCell id="Wp0R-z6l0u6ja4dDPxDP-5" value="Add Price" style="ellipse;whiteSpace=wrap;html=1;" vertex="1" parent="1">
          <mxGeometry x="350" y="190" width="230" height="50" as="geometry" />
        </mxCell>
        <mxCell id="Wp0R-z6l0u6ja4dDPxDP-6" value="Manage Site" style="ellipse;whiteSpace=wrap;html=1;" vertex="1" parent="1">
          <mxGeometry x="350" y="255" width="230" height="50" as="geometry" />
        </mxCell>
        <mxCell id="Wp0R-z6l0u6ja4dDPxDP-7" value="Login Customer" style="ellipse;whiteSpace=wrap;html=1;" vertex="1" parent="1">
          <mxGeometry x="350" y="320" width="230" height="50" as="geometry" />
        </mxCell>
        <mxCell id="Wp0R-z6l0u6ja4dDPxDP-8" value="Search Seat" style="ellipse;whiteSpace=wrap;html=1;" vertex="1" parent="1">
          <mxGeometry x="350" y="460" width="230" height="50" as="geometry" />
        </mxCell>
        <mxCell id="Wp0R-z6l0u6ja4dDPxDP-9" value="Reserve Seat" style="ellipse;whiteSpace=wrap;html=1;" vertex="1" parent="1">
          <mxGeometry x="350" y="525" width="230" height="50" as="geometry" />
        </mxCell>
        <mxCell id="Wp0R-z6l0u6ja4dDPxDP-10" value="My Account" style="ellipse;whiteSpace=wrap;html=1;" vertex="1" parent="1">
          <mxGeometry x="350" y="590" width="230" height="50" as="geometry" />
        </mxCell>
        <mxCell id="Wp0R-z6l0u6ja4dDPxDP-11" value="Forget Password" style="ellipse;whiteSpace=wrap;html=1;" vertex="1" parent="1">
          <mxGeometry x="350" y="650" width="230" height="50" as="geometry" />
        </mxCell>
        <mxCell id="Wp0R-z6l0u6ja4dDPxDP-12" value="Print Receipt&amp;nbsp;" style="ellipse;whiteSpace=wrap;html=1;" vertex="1" parent="1">
          <mxGeometry x="350" y="710" width="230" height="50" as="geometry" />
        </mxCell>
        <mxCell id="Wp0R-z6l0u6ja4dDPxDP-13" value="Give Feedback" style="ellipse;whiteSpace=wrap;html=1;" vertex="1" parent="1">
          <mxGeometry x="350" y="770" width="230" height="50" as="geometry" />
        </mxCell>
        <mxCell id="Wp0R-z6l0u6ja4dDPxDP-14" value="Actor" style="shape=umlActor;verticalLabelPosition=bottom;verticalAlign=top;html=1;outlineConnect=0;" vertex="1" parent="1">
          <mxGeometry x="80" y="240" width="70" height="105" as="geometry" />
        </mxCell>
        <mxCell id="Wp0R-z6l0u6ja4dDPxDP-15" value="Actor" style="shape=umlActor;verticalLabelPosition=bottom;verticalAlign=top;html=1;outlineConnect=0;" vertex="1" parent="1">
          <mxGeometry x="730" y="240" width="70" height="105" as="geometry" />
        </mxCell>
        <mxCell id="Wp0R-z6l0u6ja4dDPxDP-16" value="" style="endArrow=none;html=1;rounded=0;entryX=0;entryY=0.5;entryDx=0;entryDy=0;exitX=1;exitY=0.3333333333333333;exitDx=0;exitDy=0;exitPerimeter=0;" edge="1" parent="1" source="Wp0R-z6l0u6ja4dDPxDP-14" target="Wp0R-z6l0u6ja4dDPxDP-1">
          <mxGeometry width="50" height="50" relative="1" as="geometry">
            <mxPoint x="160" y="250" as="sourcePoint" />
            <mxPoint x="450" y="230" as="targetPoint" />
          </mxGeometry>
        </mxCell>
        <mxCell id="Wp0R-z6l0u6ja4dDPxDP-17" value="" style="endArrow=none;html=1;rounded=0;exitX=1;exitY=0.3333333333333333;exitDx=0;exitDy=0;exitPerimeter=0;entryX=0;entryY=0.5;entryDx=0;entryDy=0;" edge="1" parent="1" source="Wp0R-z6l0u6ja4dDPxDP-14" target="Wp0R-z6l0u6ja4dDPxDP-3">
          <mxGeometry width="50" height="50" relative="1" as="geometry">
            <mxPoint x="150" y="305" as="sourcePoint" />
            <mxPoint x="350" y="60" as="targetPoint" />
          </mxGeometry>
        </mxCell>
        <mxCell id="Wp0R-z6l0u6ja4dDPxDP-18" value="" style="endArrow=none;html=1;rounded=0;exitX=1;exitY=0.3333333333333333;exitDx=0;exitDy=0;exitPerimeter=0;entryX=0;entryY=0.5;entryDx=0;entryDy=0;" edge="1" parent="1" source="Wp0R-z6l0u6ja4dDPxDP-14" target="Wp0R-z6l0u6ja4dDPxDP-4">
          <mxGeometry width="50" height="50" relative="1" as="geometry">
            <mxPoint x="150" y="310" as="sourcePoint" />
            <mxPoint x="350" y="130" as="targetPoint" />
          </mxGeometry>
        </mxCell>
        <mxCell id="Wp0R-z6l0u6ja4dDPxDP-19" value="" style="endArrow=none;html=1;rounded=0;entryX=0;entryY=0.5;entryDx=0;entryDy=0;exitX=1;exitY=0.3333333333333333;exitDx=0;exitDy=0;exitPerimeter=0;" edge="1" parent="1" source="Wp0R-z6l0u6ja4dDPxDP-14" target="Wp0R-z6l0u6ja4dDPxDP-5">
          <mxGeometry width="50" height="50" relative="1" as="geometry">
            <mxPoint x="160" y="280" as="sourcePoint" />
            <mxPoint x="350" y="200" as="targetPoint" />
          </mxGeometry>
        </mxCell>
        <mxCell id="Wp0R-z6l0u6ja4dDPxDP-20" value="" style="endArrow=none;html=1;rounded=0;entryX=0;entryY=0.5;entryDx=0;entryDy=0;exitX=1;exitY=0.3333333333333333;exitDx=0;exitDy=0;exitPerimeter=0;" edge="1" parent="1" source="Wp0R-z6l0u6ja4dDPxDP-14" target="Wp0R-z6l0u6ja4dDPxDP-6">
          <mxGeometry width="50" height="50" relative="1" as="geometry">
            <mxPoint x="150" y="300" as="sourcePoint" />
            <mxPoint x="350" y="240" as="targetPoint" />
          </mxGeometry>
        </mxCell>
        <mxCell id="Wp0R-z6l0u6ja4dDPxDP-21" value="" style="endArrow=none;html=1;rounded=0;entryX=1;entryY=0.5;entryDx=0;entryDy=0;exitX=0;exitY=0.3333333333333333;exitDx=0;exitDy=0;exitPerimeter=0;" edge="1" parent="1" source="Wp0R-z6l0u6ja4dDPxDP-15" target="Wp0R-z6l0u6ja4dDPxDP-7">
          <mxGeometry width="50" height="50" relative="1" as="geometry">
            <mxPoint x="400" y="280" as="sourcePoint" />
            <mxPoint x="450" y="230" as="targetPoint" />
          </mxGeometry>
        </mxCell>
        <mxCell id="Wp0R-z6l0u6ja4dDPxDP-22" value="" style="endArrow=none;html=1;rounded=0;entryX=0.996;entryY=0.36;entryDx=0;entryDy=0;exitX=0;exitY=0.3333333333333333;exitDx=0;exitDy=0;exitPerimeter=0;entryPerimeter=0;" edge="1" parent="1" source="Wp0R-z6l0u6ja4dDPxDP-15" target="Wp0R-z6l0u6ja4dDPxDP-8">
          <mxGeometry width="50" height="50" relative="1" as="geometry">
            <mxPoint x="730" y="310" as="sourcePoint" />
            <mxPoint x="580" y="380" as="targetPoint" />
          </mxGeometry>
        </mxCell>
        <mxCell id="Wp0R-z6l0u6ja4dDPxDP-23" value="" style="endArrow=none;html=1;rounded=0;entryX=1;entryY=0.5;entryDx=0;entryDy=0;exitX=0;exitY=0.3333333333333333;exitDx=0;exitDy=0;exitPerimeter=0;" edge="1" parent="1" source="Wp0R-z6l0u6ja4dDPxDP-15" target="Wp0R-z6l0u6ja4dDPxDP-9">
          <mxGeometry width="50" height="50" relative="1" as="geometry">
            <mxPoint x="730" y="310" as="sourcePoint" />
            <mxPoint x="579" y="433" as="targetPoint" />
          </mxGeometry>
        </mxCell>
        <mxCell id="Wp0R-z6l0u6ja4dDPxDP-24" value="" style="endArrow=none;html=1;rounded=0;exitX=0;exitY=0.3333333333333333;exitDx=0;exitDy=0;exitPerimeter=0;entryX=1;entryY=0.5;entryDx=0;entryDy=0;" edge="1" parent="1" source="Wp0R-z6l0u6ja4dDPxDP-15" target="Wp0R-z6l0u6ja4dDPxDP-10">
          <mxGeometry width="50" height="50" relative="1" as="geometry">
            <mxPoint x="740" y="277" as="sourcePoint" />
            <mxPoint x="590" y="533" as="targetPoint" />
          </mxGeometry>
        </mxCell>
        <mxCell id="Wp0R-z6l0u6ja4dDPxDP-25" value="" style="endArrow=none;html=1;rounded=0;entryX=1;entryY=0.5;entryDx=0;entryDy=0;exitX=0;exitY=0.3333333333333333;exitDx=0;exitDy=0;exitPerimeter=0;" edge="1" parent="1" source="Wp0R-z6l0u6ja4dDPxDP-15" target="Wp0R-z6l0u6ja4dDPxDP-11">
          <mxGeometry width="50" height="50" relative="1" as="geometry">
            <mxPoint x="730" y="280" as="sourcePoint" />
            <mxPoint x="580" y="551" as="targetPoint" />
          </mxGeometry>
        </mxCell>
        <mxCell id="Wp0R-z6l0u6ja4dDPxDP-26" value="" style="endArrow=none;html=1;rounded=0;entryX=1;entryY=0.5;entryDx=0;entryDy=0;exitX=0;exitY=0.3333333333333333;exitDx=0;exitDy=0;exitPerimeter=0;" edge="1" parent="1" source="Wp0R-z6l0u6ja4dDPxDP-15" target="Wp0R-z6l0u6ja4dDPxDP-12">
          <mxGeometry width="50" height="50" relative="1" as="geometry">
            <mxPoint x="730" y="330" as="sourcePoint" />
            <mxPoint x="580" y="571" as="targetPoint" />
          </mxGeometry>
        </mxCell>
        <mxCell id="Wp0R-z6l0u6ja4dDPxDP-27" value="" style="endArrow=none;html=1;rounded=0;entryX=1;entryY=0.5;entryDx=0;entryDy=0;exitX=0;exitY=0.3333333333333333;exitDx=0;exitDy=0;exitPerimeter=0;" edge="1" parent="1" source="Wp0R-z6l0u6ja4dDPxDP-15" target="Wp0R-z6l0u6ja4dDPxDP-13">
          <mxGeometry width="50" height="50" relative="1" as="geometry">
            <mxPoint x="700" y="440" as="sourcePoint" />
            <mxPoint x="550" y="805" as="targetPoint" />
          </mxGeometry>
        </mxCell>
        <mxCell id="Wp0R-z6l0u6ja4dDPxDP-28" value="Search Bus" style="ellipse;whiteSpace=wrap;html=1;" vertex="1" parent="1">
          <mxGeometry x="350" y="390" width="230" height="50" as="geometry" />
        </mxCell>
        <mxCell id="Wp0R-z6l0u6ja4dDPxDP-29" value="" style="endArrow=none;html=1;rounded=0;entryX=1;entryY=0.5;entryDx=0;entryDy=0;exitX=0;exitY=0.3333333333333333;exitDx=0;exitDy=0;exitPerimeter=0;" edge="1" parent="1" source="Wp0R-z6l0u6ja4dDPxDP-15" target="Wp0R-z6l0u6ja4dDPxDP-28">
          <mxGeometry width="50" height="50" relative="1" as="geometry">
            <mxPoint x="730" y="290" as="sourcePoint" />
            <mxPoint x="580" y="360" as="targetPoint" />
          </mxGeometry>
        </mxCell>
      </root>
    </mxGraphModel>
  </diagram>
</mxfile>
